<svg width="512" height="512" viewBox="0 0 512 512" fill="none" xmlns="http://www.w3.org/2000/svg">
  <defs>
    <linearGradient id="bg" x1="56" y1="52" x2="456" y2="460" gradientUnits="userSpaceOnUse">
      <stop offset="0" stop-color="#FFFFFF"/>
      <stop offset="1" stop-color="#F2F4F7"/>
    </linearGradient>
    <linearGradient id="panel" x1="118" y1="136" x2="398" y2="372" gradientUnits="userSpaceOnUse">
      <stop offset="0" stop-color="#FBFCFD"/>
      <stop offset="1" stop-color="#EEF1F5"/>
    </linearGradient>
    <linearGradient id="signal" x1="175" y1="120" x2="262" y2="196" gradientUnits="userSpaceOnUse">
      <stop offset="0" stop-color="#73B8FF"/>
      <stop offset="1" stop-color="#2F7BFF"/>
    </linearGradient>
    <linearGradient id="accent" x1="292" y1="208" x2="366" y2="320" gradientUnits="userSpaceOnUse">
      <stop offset="0" stop-color="#FFB056"/>
      <stop offset="1" stop-color="#E76B25"/>
    </linearGradient>
    <filter id="shadow" x="16" y="18" width="480" height="480" filterUnits="userSpaceOnUse" color-interpolation-filters="sRGB">
      <feDropShadow dx="0" dy="18" stdDeviation="24" flood-color="#050510" flood-opacity="0.08"/>
      <feDropShadow dx="0" dy="6" stdDeviation="10" flood-color="#050510" flood-opacity="0.04"/>
    </filter>
  </defs>

  <g filter="url(#shadow)">
    <rect x="44" y="44" width="424" height="424" rx="108" fill="url(#bg)" stroke="#FFFFFF" stroke-width="4"/>
  </g>

  <rect x="108" y="138" width="296" height="236" rx="40" fill="url(#panel)" stroke="#E2E6EC" stroke-width="4"/>

  <path d="M166 126C185 137 201 150 221 174" stroke="url(#signal)" stroke-width="12" stroke-linecap="round"/>
  <path d="M226 112C232 132 237 149 244 174" stroke="url(#signal)" stroke-width="12" stroke-linecap="round"/>
  <path d="M286 126C271 138 260 149 248 174" stroke="url(#signal)" stroke-width="12" stroke-linecap="round"/>
  <circle cx="166" cy="126" r="8" fill="#7BBEFF"/>
  <circle cx="226" cy="112" r="8" fill="#58A6FF"/>
  <circle cx="286" cy="126" r="8" fill="#3D8DFF"/>

  <rect x="214" y="176" width="44" height="10" rx="5" fill="#D7DDE7"/>

  <circle cx="352" cy="174" r="8" fill="url(#accent)"/>

  <path d="M154 229L192 258L154 287" stroke="#171922" stroke-width="18" stroke-linecap="round" stroke-linejoin="round"/>
  <rect x="206" y="280" width="38" height="12" rx="6" fill="#171922"/>

  <rect x="286" y="246" width="18" height="58" rx="9" fill="#C7CED8"/>
  <rect x="316" y="218" width="18" height="86" rx="9" fill="#171922"/>
  <rect x="346" y="234" width="18" height="70" rx="9" fill="url(#accent)"/>
  <rect x="276" y="316" width="98" height="8" rx="4" fill="#D9DEE6"/>

  <rect x="140" y="332" width="84" height="10" rx="5" fill="#D8DDE5"/>
  <rect x="140" y="352" width="60" height="10" rx="5" fill="#E3E7ED"/>
  <rect x="272" y="344" width="72" height="10" rx="5" fill="#E3E7ED"/>
</svg>
